<svg width="521" height="455" viewBox="0 0 521 455" fill="none" xmlns="http://www.w3.org/2000/svg">
<g clip-path="url(#clip0)">
<path opacity="0.2" d="M471.666 163.615H441.595V179.225H471.666V163.615Z" fill="#2A2C34"/>
<path opacity="0.2" d="M473.979 182.694H443.908V198.304H473.979V182.694Z" fill="#2A2C34"/>
<path opacity="0.2" d="M449.113 50.2986H419.042V65.9085H449.113V50.2986Z" fill="#2A2C34"/>
<path opacity="0.2" d="M470.509 68.2212H440.438V83.8311H470.509V68.2212Z" fill="#2A2C34"/>
<path opacity="0.2" d="M412.681 51.4548H382.61V67.0647H412.681V51.4548Z" fill="#2A2C34"/>
<path opacity="0.2" d="M509.254 86.1436H479.184V101.753H509.254V86.1436Z" fill="#2A2C34"/>
<path opacity="0.2" d="M472.822 87.2998H442.751V102.91H472.822V87.2998Z" fill="#2A2C34"/>
<path opacity="0.2" d="M434.077 69.3774H404.006V84.9874H434.077V69.3774Z" fill="#2A2C34"/>
<path opacity="0.2" d="M507.52 206.398H477.449V222.008H507.52V206.398Z" fill="#2A2C34"/>
<path opacity="0.2" d="M471.088 207.554H441.017V223.164H471.088V207.554Z" fill="#2A2C34"/>
<path d="M75.6108 159.568C75.6108 159.568 117.993 201.94 94.0697 264.79C70.146 327.64 135.076 432.244 135.076 432.244C135.076 432.244 134.382 432.14 133.092 431.915C46.0489 416.553 2.799 317.026 51.2246 243.11C69.1977 215.596 83.9671 183.353 75.6108 159.568Z" fill="#2A2C34"/>
<path d="M75.6105 159.568C75.6105 159.568 99.5342 211.508 75.6105 253.875C51.6869 296.241 71.5105 415.177 135.081 432.244" stroke="#535461" stroke-width="2" stroke-miterlimit="10"/>
<path d="M0.121582 330.942C0.121582 330.942 48.4836 323.241 52.8901 366.573C57.2966 409.905 145.89 415.912 145.89 415.912C145.89 415.912 145.312 416.305 144.23 417.016C71.0829 465.002 1.16249 447.594 11.7046 383.853C15.6196 360.155 15.2958 336.353 0.121582 330.942Z" fill="#2A2C34"/>
<path opacity="0.2" d="M0.121582 330.942C0.121582 330.942 48.4836 323.241 52.8901 366.573C57.2966 409.905 145.89 415.912 145.89 415.912C145.89 415.912 145.312 416.305 144.23 417.016C71.0829 465.002 1.16249 447.594 11.7046 383.853C15.6196 360.155 15.2958 336.353 0.121582 330.942Z" fill="#F5F5F5"/>
<path d="M0.121582 330.942C0.121582 330.942 37.6581 339.18 34.5758 373.302C31.4935 407.424 90.3225 448.351 145.89 415.912" stroke="#535461" stroke-width="2" stroke-miterlimit="10"/>
<path opacity="0.2" d="M30.4351 164.193H0.364258V179.803H30.4351V164.193Z" fill="#2A2C34"/>
<path opacity="0.2" d="M51.8316 182.116H21.7607V197.726H51.8316V182.116Z" fill="#2A2C34"/>
<path opacity="0.2" d="M214.33 0H184.259V15.6099H214.33V0Z" fill="#2A2C34"/>
<path opacity="0.2" d="M451.426 287.916H421.355V303.526H451.426V287.916Z" fill="#2A2C34"/>
<path opacity="0.2" d="M54.145 201.194H24.0742V216.804H54.145V201.194Z" fill="#2A2C34"/>
<path opacity="0.2" d="M235.726 17.9226H205.655V33.5325H235.726V17.9226Z" fill="#2A2C34"/>
<path opacity="0.2" d="M125.853 123.723H95.7817V139.333H125.853V123.723Z" fill="#2A2C34"/>
<path opacity="0.2" d="M147.249 141.646H117.178V157.255H147.249V141.646Z" fill="#2A2C34"/>
<path opacity="0.2" d="M204.499 131.817H174.428V147.427H204.499V131.817Z" fill="#2A2C34"/>
<path opacity="0.2" d="M149.562 160.724H119.491V176.334H149.562V160.724Z" fill="#2A2C34"/>
<path opacity="0.2" d="M491.906 287.916H461.835V303.526H491.906V287.916Z" fill="#2A2C34"/>
<path d="M416.741 226.118C414.794 215.285 413.6 204.33 413.167 193.332C412.783 184.274 409.605 175.557 404.071 168.376C398.536 161.194 390.915 155.901 382.252 153.22C379.095 152.249 375.619 151.341 371.779 150.526C338.123 143.38 327.899 149.618 326.737 150.439C325.752 148.65 324.896 146.793 324.175 144.883C324.117 144.687 324.065 144.49 324.007 144.305C330.668 137.203 334.727 128.055 335.521 118.352C341.136 112.663 344.415 105.795 344.415 98.4003C344.415 92.0407 341.986 86.0742 337.736 80.9114V70.8633C337.736 59.2758 333.131 48.163 324.936 39.9695C316.74 31.7759 305.625 27.1729 294.035 27.1729H290.49C284.751 27.1729 279.068 28.3029 273.766 30.4986C268.464 32.6942 263.647 35.9124 259.589 39.9695C255.531 44.0265 252.312 48.8429 250.115 54.1437C247.919 59.4444 246.789 65.1258 246.789 70.8633V81.6919C242.932 86.6697 240.746 92.3529 240.746 98.3887C240.746 105.627 243.892 112.357 249.293 117.976C250.031 128.035 254.275 137.516 261.286 144.768C261.524 146.409 261.766 148.173 262.003 150.034L201.804 162.748C201.804 162.748 178.592 163.702 163.637 194.546C150.99 220.672 125.823 287.795 118.369 307.775C117.022 311.395 116.258 313.47 116.258 313.47C116.258 313.47 116.507 313.222 116.975 312.794L116.258 314.742C116.258 314.742 116.623 314.372 117.317 313.765C116.264 322.125 116.114 336.48 127.066 338.267C136.25 339.764 159.913 340.383 177.788 340.631H179.025C190.874 340.788 199.89 340.788 199.89 340.788V340.631H392.135V338.66C392.137 336.872 391.777 335.102 391.077 333.457L391.343 333.133C392.371 334.491 393.056 336.078 393.338 337.758C393.316 337.921 393.285 338.084 393.245 338.244L393.361 337.949C393.406 338.474 393.367 339.003 393.245 339.516C393.245 339.516 417.909 275.983 417.643 238.045C417.714 234.05 417.412 230.057 416.741 226.118ZM263.004 158.62C262.685 156.807 262.481 154.977 262.391 153.139C262.391 153.139 262.391 153.104 262.391 153.087C262.605 154.873 262.813 156.724 263.004 158.62ZM188.278 295.085V310.227L178.794 312.256L188.278 295.085Z" fill="url(#paint0_linear)"/>
<path d="M291.287 33.2839C302.878 33.2839 313.993 37.887 322.189 46.0806C330.384 54.2741 334.988 65.3869 334.988 76.9743V95.6137H247.586V76.9743C247.586 65.3869 252.191 54.2741 260.386 46.0806C268.582 37.887 279.697 33.2839 291.287 33.2839Z" fill="#E14B5A"/>
<path d="M291.594 135.945C319.105 135.945 341.408 120.624 341.408 101.725C341.408 82.8251 319.105 67.5042 291.594 67.5042C264.083 67.5042 241.781 82.8251 241.781 101.725C241.781 120.624 264.083 135.945 291.594 135.945Z" fill="#E14B5A"/>
<path d="M259.662 134.875C259.662 134.875 270.071 189.261 259.662 203.929C249.253 218.597 291.468 224.401 291.468 224.401L335.163 208.514L341.276 169.402C341.276 169.402 314.675 154.428 320.186 124.18L259.662 134.875Z" fill="#F7C4A7"/>
<path d="M388.631 318.205C388.631 318.205 391.383 330.121 376.406 332.26C367.562 333.56 358.569 333.453 349.759 331.942L346.457 302.011H381.298L388.631 318.205Z" fill="#F7C4A7"/>
<path d="M124.157 302.954C124.157 302.954 117.542 329.832 132.519 332.26C147.497 334.688 202.492 334.705 202.492 334.705V302.907L177.591 308.226L154.216 285.817L124.157 302.954Z" fill="#F7C4A7"/>
<path opacity="0.1" d="M262.877 152.445L204.349 164.817C204.349 164.817 182.038 165.737 167.674 195.372C153.309 225.008 122.134 309.649 122.134 309.649C122.134 309.649 148.735 282.759 179.899 311.481L200.682 273.902L196.096 333.485H357.137V305.37C357.137 305.37 390.753 323.397 388.313 333.48C388.313 333.48 417.082 259.373 410.866 225.696C408.994 215.285 407.847 204.757 407.431 194.187C407.064 185.482 404.01 177.104 398.691 170.202C393.371 163.301 386.045 158.215 377.718 155.642C374.688 154.711 371.357 153.838 367.656 153.058C333.121 145.727 324.285 153.058 324.285 153.058C324.285 153.058 317.594 174.819 317.716 184.683C317.866 197.361 299.685 205.767 299.685 205.767C299.685 205.767 272.789 199.35 271.568 194.158C270.348 188.967 260.726 158.556 262.877 152.445Z" fill="black"/>
<path d="M262.876 151.225L204.348 163.598C204.348 163.598 182.038 164.517 167.673 194.153C153.309 223.788 122.127 308.44 122.127 308.44C122.127 308.44 148.729 281.551 179.892 310.273L200.676 272.694L196.09 332.26H357.137V304.151C357.137 304.151 390.752 322.177 388.312 332.26C388.312 332.26 417.082 258.153 410.865 224.476C408.994 214.065 407.846 203.537 407.43 192.967C407.063 184.262 404.01 175.884 398.69 168.983C393.37 162.081 386.044 156.995 377.718 154.423C374.688 153.492 371.357 152.619 367.656 151.838C333.121 144.507 324.284 151.838 324.284 151.838C324.284 151.838 317.594 173.6 317.715 183.463C317.865 196.141 299.684 204.548 299.684 204.548C299.684 204.548 272.788 198.13 271.568 192.939C270.348 187.747 260.725 157.336 262.876 151.225Z" fill="#7D7E96"/>
<path opacity="0.1" d="M322.683 148.629C320.224 141.671 319.673 134.181 321.087 126.938L260.563 137.627C260.563 137.627 261.437 142.201 262.426 149.052C266.336 153.108 271.031 156.328 276.225 158.514C281.419 160.699 287.004 161.806 292.639 161.767C298.274 161.727 303.843 160.542 309.006 158.284C314.169 156.025 318.818 152.741 322.671 148.629H322.683Z" fill="black"/>
<path d="M333.006 117.462C332.959 128.365 328.627 138.812 320.945 146.552C313.264 154.291 302.848 158.703 291.943 158.835C281.038 158.967 270.517 154.809 262.651 147.257C254.784 139.706 250.201 129.366 249.889 118.468C249.889 118.132 249.889 117.797 249.889 117.462C249.887 109.681 252.07 102.056 256.189 95.4542C260.308 88.8525 266.198 83.5394 273.188 80.1193C274.434 79.5103 275.713 78.963 277.028 78.4773C283.866 75.9644 291.241 75.2789 298.425 76.4885C307.631 78.0559 316.041 82.6798 322.296 89.6138C328.55 96.5477 332.285 105.387 332.896 114.704C332.969 115.617 333.006 116.537 333.006 117.462Z" fill="#F7C4A7"/>
<g opacity="0.1">
<path opacity="0.1" d="M276.964 79.4544L277.022 79.4197C275.708 79.9053 274.428 80.4526 273.182 81.0616C266.192 84.4817 260.302 89.7949 256.183 96.3966C252.064 102.998 249.881 110.623 249.883 118.404C249.883 118.739 249.883 119.075 249.883 119.41C251.176 119.375 252.446 119.07 253.613 118.514C263.745 113.785 269.805 99.3194 272.211 89.2308C273.078 85.6174 273.894 81.5472 276.964 79.4544Z" fill="black"/>
<path opacity="0.1" d="M308.776 80.6165C305.487 79.1055 302.012 78.0345 298.443 77.4309C301.37 78.1044 303.984 79.7463 305.862 82.0908C306.782 83.3418 307.545 84.701 308.135 86.1378C302.603 83.7198 296.612 82.5321 290.576 82.6569C284.541 82.7817 278.604 84.2159 273.177 86.8605C275.785 92.5783 283.876 95.6945 289.277 97.7816C295.191 100.063 301.166 102.15 307.204 104.043L301.86 99.7068L313.929 101.626C314.059 99.225 313.773 96.8193 313.085 94.5151C315.398 96.3767 318.463 97.0011 320.972 98.5621C325.674 101.528 327.634 107.234 330.196 112.177C330.873 113.484 331.671 114.82 332.891 115.646C332.398 108.178 329.897 100.981 325.652 94.8157C321.408 88.6502 315.578 83.7446 308.776 80.6165Z" fill="black"/>
</g>
<path d="M276.964 78.512L277.022 78.4773C275.708 78.9629 274.428 79.5102 273.182 80.1192C266.192 83.5393 260.302 88.8525 256.183 95.4542C252.064 102.056 249.881 109.681 249.883 117.462C249.883 117.797 249.883 118.132 249.883 118.468C251.176 118.433 252.446 118.127 253.613 117.571C263.745 112.842 269.805 98.377 272.211 88.2884C273.078 84.6981 273.894 80.6106 276.964 78.512Z" fill="#632652"/>
<path d="M308.775 79.68C305.485 78.169 302.011 77.0979 298.441 76.4944C301.369 77.1678 303.983 78.8098 305.86 81.1542C306.781 82.4053 307.544 83.7644 308.133 85.2012C302.602 82.7833 296.611 81.5956 290.575 81.7204C284.539 81.8451 278.603 83.2794 273.176 85.9239C275.784 91.6418 283.874 94.758 289.275 96.8451C295.189 99.1268 301.165 101.214 307.202 103.106L301.859 98.7703L313.928 100.69C314.057 98.2884 313.772 95.8827 313.083 93.5786C315.396 95.4402 318.461 96.0646 320.971 97.6256C325.673 100.591 327.633 106.298 330.195 111.241C330.871 112.548 331.669 113.883 332.89 114.71C332.396 107.241 329.895 100.045 325.651 93.8792C321.407 87.7137 315.576 82.808 308.775 79.68Z" fill="#632652"/>
<path opacity="0.1" d="M245.141 110.611C245.141 110.611 287.934 57.4215 337.441 110.611L333.161 98.6952C333.161 98.6952 309.932 64.7812 293.433 72.1005C276.935 79.4199 260.731 84.6289 260.731 84.6289L245.141 110.611Z" fill="black"/>
<path d="M245.141 109.668C245.141 109.668 287.934 56.4791 337.441 109.668L333.161 97.7528C333.161 97.7528 309.932 63.8388 293.433 71.1582C276.935 78.4775 260.731 83.6866 260.731 83.6866L245.141 109.668Z" fill="#E14B5A"/>
<path opacity="0.1" d="M209.993 224.251C209.993 224.251 200.827 248.695 213.659 270.693C226.491 292.692 202.354 301.861 202.354 301.861" fill="black"/>
<path opacity="0.1" d="M358.525 202.252C358.525 202.252 374.416 222.418 364.024 240.445C353.633 258.471 354.246 301.861 354.246 301.861" fill="black"/>
<path d="M195.934 319.887H372.583C376.474 319.887 380.206 321.433 382.957 324.183C385.708 326.934 387.254 330.665 387.254 334.555H181.269C181.269 330.666 182.814 326.936 185.564 324.186C188.314 321.435 192.044 319.889 195.934 319.887Z" fill="#535461"/>
<path d="M213.907 219.053H354.615C357.577 219.053 360.51 219.636 363.246 220.77C365.982 221.903 368.469 223.564 370.563 225.657C372.657 227.751 374.318 230.237 375.452 232.972C376.585 235.708 377.169 238.64 377.169 241.601V323.246H191.354V241.601C191.354 235.621 193.73 229.886 197.96 225.657C202.189 221.429 207.926 219.053 213.907 219.053Z" fill="#535461"/>
<path d="M284.105 286.737C290.183 286.737 295.11 281.811 295.11 275.735C295.11 269.658 290.183 264.732 284.105 264.732C278.028 264.732 273.101 269.658 273.101 275.735C273.101 281.811 278.028 286.737 284.105 286.737Z" fill="white"/>
<path opacity="0.1" d="M247.586 85.6812C247.586 85.6812 289.639 43.6616 334.994 84.9122" stroke="black" stroke-miterlimit="10"/>
<path d="M345.618 83.0042H341.397V106.934H345.618V83.0042Z" fill="#6A5C99"/>
<path d="M335.764 98.4871C339.623 98.4871 343.324 100.02 346.052 102.748C348.781 105.475 350.314 109.175 350.314 113.033V113.97C350.314 117.828 348.781 121.527 346.052 124.255C343.324 126.983 339.623 128.516 335.764 128.516V98.4871Z" fill="#FFD037"/>
<path d="M339.517 100.366C339.517 98.5523 338.046 97.082 336.232 97.082C334.418 97.082 332.948 98.5523 332.948 100.366V126.643C332.948 128.456 334.418 129.926 336.232 129.926C338.046 129.926 339.517 128.456 339.517 126.643V100.366Z" fill="#6A5C99"/>
<path d="M236.53 107.402H240.751V83.4724H236.53V107.402Z" fill="#6A5C99"/>
<path d="M246.384 128.984C242.525 128.984 238.824 127.452 236.096 124.724C233.367 121.996 231.834 118.296 231.834 114.438V113.501C231.834 111.591 232.21 109.7 232.942 107.935C233.673 106.17 234.745 104.566 236.096 103.216C237.447 101.865 239.051 100.794 240.816 100.063C242.581 99.3315 244.473 98.9553 246.384 98.9553V128.984Z" fill="#FFD037"/>
<path d="M242.631 127.105C242.631 128.919 244.102 130.389 245.916 130.389C247.73 130.389 249.201 128.919 249.201 127.105V100.828C249.201 99.0148 247.73 97.5445 245.916 97.5445C244.102 97.5445 242.631 99.0148 242.631 100.828V127.105Z" fill="#6A5C99"/>
<path d="M340.899 57.4272C335.18 45.5405 322.723 31.1679 295.874 30.0174V29.9827H295.55L286.037 30.4336V30.4799C259.366 31.7055 246.968 46.0262 241.266 57.8724C237.469 65.9031 235.452 74.6596 235.356 83.542L238.641 83.4611L241.925 83.3859C242.067 75.478 243.886 67.6902 247.263 60.5376C254.503 45.6677 267.827 37.7645 286.858 37.0303L295.272 36.562C314.315 37.2904 327.644 45.2052 334.879 60.0693C338.261 67.2246 340.084 75.0165 340.228 82.9292L343.513 83.0043L346.797 83.0853C346.703 74.2077 344.691 65.4552 340.899 57.4272Z" fill="#FFD037"/>
<path d="M490.958 334.746H42.9551V455H490.958V334.746Z" fill="#D6D6E3"/>
<path opacity="0.1" d="M490.958 342.84H42.9551V358.45H490.958V342.84Z" fill="black"/>
<path d="M521 333.011H12.9014V348.621H521V333.011Z" fill="#D6D6E3"/>
</g>
<defs>
<linearGradient id="paint0_linear" x1="266.954" y1="340.816" x2="266.954" y2="27.1729" gradientUnits="userSpaceOnUse">
<stop stop-color="#808080" stop-opacity="0.25"/>
<stop offset="0.54" stop-color="#808080" stop-opacity="0.12"/>
<stop offset="1" stop-color="#808080" stop-opacity="0.1"/>
</linearGradient>
<clipPath id="clip0">
<rect width="521" height="455" fill="white"/>
</clipPath>
</defs>
</svg>
