<svg width="598" height="394" viewBox="0 0 598 394" fill="none" xmlns="http://www.w3.org/2000/svg">
<path d="M535.619 269.63C535.073 289.99 531.658 310.171 525.473 329.579C525.332 330.03 525.184 330.473 525.036 330.924H487.173C487.214 330.52 487.254 330.07 487.294 329.579C489.819 300.6 504.374 124.221 486.971 94.0579C488.493 96.5048 538.554 177.549 535.619 269.63Z" fill="#E6E6E6"/>
<path d="M532.778 329.579C532.461 330.03 532.131 330.48 531.795 330.924H503.391C503.607 330.54 503.856 330.09 504.145 329.579C508.838 321.123 522.726 295.84 535.619 269.63C549.474 241.464 562.184 212.229 561.114 201.648C561.444 204.034 571.031 276.782 532.778 329.579Z" fill="#E6E6E6"/>
<path d="M105.911 333.321H52.6178C52.5518 333.117 52.4857 332.92 52.4196 332.722C52.2875 332.32 52.1554 331.924 52.0293 331.522C52.0172 331.492 52.0113 331.456 51.9992 331.426C51.6029 330.197 51.2125 328.962 50.8342 327.733C48.8463 321.28 47.1007 314.82 45.5973 308.351C54.2206 313.82 64.1236 316.947 74.3279 317.424C73.8474 316.549 73.361 315.649 72.8565 314.72L40.8409 283.046C40.0542 277.619 39.4176 272.208 38.9312 266.813L88.1707 315.979C88.8974 315.817 89.618 315.637 90.3327 315.445C95.1048 314.172 99.681 312.255 103.935 309.749C104.458 316.249 104.914 321.766 105.28 326.107C105.461 328.146 105.611 329.927 105.743 331.426C105.743 331.456 105.749 331.492 105.749 331.522C105.785 331.948 105.821 332.35 105.857 332.722C105.875 332.932 105.893 333.129 105.911 333.321Z" fill="#E6E6E6"/>
<path d="M103.071 298.673C102.188 299.339 101.279 299.966 100.344 300.556C97.4718 302.385 94.3938 303.871 91.1736 304.981L42.2043 256.085L37.9043 251.792C37.8263 250.208 37.7642 248.625 37.7182 247.042C37.6341 244.464 37.582 241.889 37.562 239.319C41.2219 233.266 46.2516 228.155 52.2476 224.394C58.2435 220.634 65.0387 218.329 72.0879 217.665C73.4212 217.539 74.7784 217.479 76.1477 217.479C80.8215 217.478 85.4664 218.211 89.9124 219.65C92.734 220.554 95.4597 221.733 98.0499 223.17C98.8187 236.98 99.6474 250.226 100.47 262.484H96.1822V272.48H101.149C101.545 278.093 101.93 283.454 102.302 288.509C102.566 292.053 102.822 295.441 103.071 298.673Z" fill="#E6E6E6"/>
<path d="M97.2329 207.878C97.299 209.156 97.3651 210.431 97.4311 211.704C87.4519 207.548 76.4653 206.429 65.8511 208.487C55.2369 210.545 45.4683 215.688 37.772 223.272C38.0122 216.507 38.4326 209.807 39.0331 203.171C48.7862 93.565 103.437 4.35953 106.139 0C92.2904 24.2263 92.8849 114.511 96.6384 195.549C96.8306 199.687 97.0288 203.797 97.2329 207.878Z" fill="#E6E6E6"/>
<path d="M42.2044 256.085L37.9044 251.792L33.5864 247.48C34.1814 245.878 34.8651 244.311 35.6343 242.785C36.325 244.206 37.0196 245.625 37.7182 247.042C39.2076 250.071 40.703 253.085 42.2044 256.085Z" fill="#E6E6E6"/>
<path d="M83.0839 333.321H43.1049C42.9548 333.123 42.8046 332.926 42.6545 332.722C42.3602 332.326 42.0659 331.924 41.7837 331.522C41.7597 331.492 41.7416 331.456 41.7176 331.426C38.3005 326.707 35.1475 321.886 32.2589 316.963L32.2529 316.957C19.6532 295.591 11.804 272.702 7.00553 250.958C-4.36899 199.393 1.43238 154.305 1.82874 151.414C0.747744 162.502 10.3206 188.012 23.2926 216.621C25.5927 221.701 28.0009 226.876 30.4752 232.081C26.7307 237.676 24.0515 243.913 22.5719 250.478L56.8696 284.725C62.8272 296.112 68.3523 306.415 72.8564 314.72L40.8408 283.046L21.0645 263.479C21.1928 277.758 26.9519 291.411 37.0933 301.479C39.6793 304.061 42.5296 306.364 45.5972 308.351C54.2205 313.82 64.1235 316.947 74.3278 317.424C77.6188 323.475 80.2733 328.278 82.0209 331.426C82.0389 331.462 82.0569 331.492 82.0749 331.522C82.2071 331.756 82.3332 331.978 82.4533 332.194C82.5554 332.38 82.6515 332.554 82.7476 332.722C82.8617 332.932 82.9758 333.129 83.0839 333.321Z" fill="#E6E6E6"/>
<path d="M594.999 331.523H4.05225V332.723H594.999V331.523Z" fill="#2F2E41"/>
<path d="M337.106 289.768H302.058V303.764H320.585C317.576 313.269 310.568 319.769 297.548 319.769C283.026 319.769 272.511 307.764 272.511 293.264C272.511 278.764 282.528 266.267 297.049 266.267C301.12 266.325 305.125 267.299 308.767 269.117C312.408 270.935 315.592 273.55 318.081 276.767L329.599 269.266C325.895 264.112 321.004 259.923 315.34 257.051C309.675 254.18 303.402 252.709 297.049 252.763C275.015 252.763 256.986 270.765 256.986 293.264C256.986 311.056 267.634 326.042 283.489 331.522C284.858 332.001 286.254 332.401 287.669 332.722C293.843 334.113 300.25 334.113 306.424 332.722C307.841 332.401 309.238 332.001 310.61 331.522C326.459 326.042 337.106 311.056 337.106 293.264C337.611 291.765 337.106 290.764 337.106 289.768ZM581.977 281.265L567.954 309.767L554.291 284.677L552.435 281.265H535.908L547.931 302.529L559.942 323.769L555.835 331.522L555.198 332.722L541.92 357.77H557.942L571.059 332.722L571.683 331.522L598 281.265H581.977ZM533.752 292.688C532.288 289.821 530.265 287.274 527.801 285.199C523.469 281.612 517.999 279.686 512.372 279.766C508.367 279.766 501.358 280.767 496.35 287.765V247.264H482.327V331.265H495.845V324.764C497.742 327.407 500.279 329.526 503.22 330.923C503.7 331.151 504.181 331.349 504.655 331.522C506.517 332.207 508.47 332.611 510.451 332.722C510.997 332.758 511.472 332.764 511.874 332.764C512.384 332.764 512.883 332.752 513.381 332.722C515.636 332.613 517.867 332.21 520.017 331.522C520.582 331.343 521.129 331.145 521.663 330.923C523.084 330.351 524.444 329.638 525.723 328.794C532.731 324.183 536.911 315.955 536.911 306.265C536.96 301.552 535.877 296.897 533.752 292.688ZM509.274 320.255C509.141 320.267 509.003 320.267 508.865 320.267C500.355 320.267 494.848 314.264 494.848 306.265C494.848 298.265 500.355 292.269 508.865 292.269C514.318 292.269 518.534 294.727 520.858 298.595C522.225 300.918 522.927 303.571 522.888 306.265C522.888 314.126 517.081 320.063 509.274 320.255ZM472.814 306.265C470.31 302.265 464.298 300.766 460.292 299.267L456.791 298.265C452.785 296.766 452.281 295.267 452.281 293.768C452.281 291.267 454.287 289.768 457.788 289.768C459.295 289.768 462.298 290.266 465.799 293.264L472.814 285.265C468.268 281.642 462.607 279.699 456.791 279.766C452.785 279.766 447.777 280.263 443.771 283.268C440.648 286.29 438.848 290.422 438.762 294.763C438.734 296.538 439.076 298.3 439.765 299.936C440.455 301.572 441.477 303.047 442.768 304.268C445.771 307.266 449.777 308.765 453.284 310.265L456.287 311.266C458.292 311.764 460.797 313.269 460.797 316.267C460.797 319.769 457.788 321.766 453.782 321.766C449.777 321.766 445.771 318.768 442.768 315.763L435.255 324.267C437.675 326.683 441.057 329.819 446.377 331.522C448.57 332.213 450.843 332.616 453.14 332.722C453.674 332.752 454.221 332.764 454.785 332.764C455.26 332.764 455.734 332.752 456.196 332.722C458.337 332.623 460.452 332.219 462.478 331.522C465.179 330.598 467.671 329.152 469.811 327.265C471.594 325.715 473.012 323.791 473.964 321.631C474.916 319.471 475.378 317.127 475.318 314.768C475.405 311.74 474.528 308.763 472.814 306.265ZM423.238 281.265V264.265H409.215V281.265H403.708V293.264H409.215V331.265H423.238V293.264H432.751V281.265H423.238ZM381.175 281.265V287.765C376.671 280.263 369.158 279.766 365.152 279.766C350.631 279.766 340.614 291.267 340.614 306.265C340.614 318.006 347.178 328.104 357.922 331.522C360.09 332.211 362.339 332.614 364.612 332.722C365.122 332.752 365.633 332.764 366.155 332.764C366.69 332.764 367.266 332.758 367.879 332.722C369.863 332.642 371.821 332.237 373.674 331.522C376.383 330.449 379.217 328.458 381.674 324.764V331.265H395.697V281.265H381.175ZM369.657 320.267C361.147 320.267 355.634 314.264 355.634 306.265C355.634 298.265 361.645 292.269 369.657 292.269C378.172 292.269 383.679 298.265 383.679 306.265C383.679 314.264 377.668 320.267 369.657 320.267Z" fill="black"/>
<path d="M101.148 272.48C101.545 278.093 101.929 283.454 102.301 288.509C102.566 292.053 102.822 295.441 103.07 298.673C104.857 297.347 106.542 295.887 108.109 294.307C114.089 288.29 118.28 280.734 120.216 272.48H101.148ZM37.7177 247.042C37.6336 244.464 37.5816 241.889 37.5616 239.319C36.8709 240.44 36.2284 241.595 35.6338 242.785C34.8645 244.311 34.1808 245.878 33.5859 247.48L37.9039 251.791C37.8258 250.208 37.7637 248.625 37.7177 247.042ZM101.148 272.48C101.545 278.093 101.929 283.454 102.301 288.509C102.566 292.053 102.822 295.441 103.07 298.673C104.857 297.347 106.542 295.887 108.109 294.307C114.089 288.29 118.28 280.734 120.216 272.48H101.148ZM101.148 272.48C101.545 278.093 101.929 283.454 102.301 288.509C102.566 292.053 102.822 295.441 103.07 298.673C104.857 297.347 106.542 295.887 108.109 294.307C114.089 288.29 118.28 280.734 120.216 272.48H101.148ZM37.5616 239.319C36.8709 240.44 36.2284 241.595 35.6338 242.785C34.8645 244.311 34.1808 245.878 33.5859 247.48L37.9039 251.791C37.8258 250.208 37.7637 248.625 37.7177 247.042C37.6336 244.464 37.5816 241.889 37.5616 239.319ZM141.109 236.242C137.16 226.605 131.126 217.959 123.437 210.923C115.749 203.888 106.597 198.638 96.6382 195.549C87.0522 192.608 76.9437 191.767 67.0024 193.082C57.0611 194.398 47.521 197.839 39.0329 203.171C33.1545 206.86 27.851 211.392 23.2924 216.621C17.0901 223.709 12.389 231.977 9.47215 240.927C6.55534 249.877 5.48324 259.324 6.32045 268.699C7.15766 278.074 9.88684 287.182 14.3436 295.476C18.8003 303.77 24.8923 311.077 32.2527 316.957L32.2587 316.963C37.8607 321.482 44.1257 325.115 50.8338 327.732C58.9016 330.876 67.4868 332.487 76.1472 332.482C78.2732 332.482 80.3752 332.386 82.4531 332.194C84.2127 332.038 85.9523 331.814 87.6719 331.522C93.7584 330.516 99.6812 328.694 105.28 326.107C113.715 322.22 121.301 316.712 127.604 309.898C133.907 303.084 138.805 295.096 142.016 286.392C143.672 281.89 144.851 277.227 145.535 272.48C147.314 260.222 145.786 247.713 141.109 236.242ZM45.597 308.351C42.5294 306.364 39.6791 304.061 37.0931 301.479C26.9517 291.411 21.1926 277.758 21.0643 263.479L40.8406 283.046L72.8562 314.72L75.6488 317.484C75.2104 317.466 74.766 317.448 74.3275 317.424C64.1233 316.947 54.2203 313.82 45.597 308.351ZM130.299 272.48C128.232 283.378 122.903 293.393 115.015 301.203C112.659 303.547 110.099 305.676 107.364 307.566C106.253 308.333 105.106 309.065 103.935 309.749C99.6807 312.255 95.1044 314.172 90.3323 315.445C89.6177 315.637 88.897 315.817 88.1704 315.979L22.5717 250.478C24.0513 243.913 26.7305 237.676 30.475 232.081C32.599 228.903 35.044 225.951 37.7718 223.272C47.9864 213.174 61.7737 207.502 76.1472 207.483C87.647 207.444 98.867 211.022 108.217 217.707C113 221.12 117.217 225.262 120.714 229.982L113.208 236.482C109.166 231.013 103.997 226.474 98.0495 223.17C95.4593 221.733 92.7336 220.553 89.912 219.65C85.4659 218.211 80.821 217.478 76.1472 217.479C74.778 217.479 73.4207 217.539 72.0875 217.665C65.0382 218.329 58.243 220.634 52.2471 224.394C46.2512 228.155 41.2215 233.266 37.5616 239.319C36.8709 240.44 36.2284 241.595 35.6338 242.785C34.8645 244.311 34.1808 245.878 33.5859 247.48L37.9039 251.791L42.2038 256.085L91.1731 304.981C94.3933 303.871 97.4714 302.385 100.344 300.556C101.28 299.968 102.189 299.34 103.07 298.673C104.857 297.347 106.542 295.887 108.109 294.307C114.089 288.29 118.28 280.734 120.216 272.48H96.1818V262.483H131.23C131.232 265.837 130.92 269.184 130.299 272.48ZM101.148 272.48C101.545 278.093 101.929 283.454 102.301 288.509C102.566 292.053 102.822 295.441 103.07 298.673C104.857 297.347 106.542 295.887 108.109 294.307C114.089 288.29 118.28 280.734 120.216 272.48H101.148ZM101.148 272.48C101.545 278.093 101.929 283.454 102.301 288.509C102.566 292.053 102.822 295.441 103.07 298.673C104.857 297.347 106.542 295.887 108.109 294.307C114.089 288.29 118.28 280.734 120.216 272.48H101.148Z" fill="#663399"/>
<path d="M199.623 389.004L219.802 385.843L211.492 377.152H199.623V389.004Z" fill="#FFB8B8"/>
<path d="M203.486 393.801L223.446 387.245C223.976 387.071 224.462 386.786 224.871 386.407C225.28 386.029 225.602 385.567 225.817 385.054C226.031 384.54 226.132 383.986 226.113 383.43C226.094 382.873 225.955 382.328 225.705 381.83C225.363 381.146 224.826 380.579 224.162 380.199C223.497 379.819 222.735 379.644 221.972 379.696L217.444 380.001L215.669 379.004C215.483 378.899 215.267 378.855 215.054 378.878C214.841 378.9 214.64 378.989 214.479 379.131C214.319 379.273 214.206 379.461 214.158 379.67C214.109 379.878 214.127 380.097 214.209 380.295L215.845 384.263L199.227 383.078L198.407 389.627C198.326 390.278 198.411 390.938 198.654 391.547C198.896 392.156 199.289 392.694 199.796 393.11C200.303 393.527 200.907 393.808 201.552 393.929C202.197 394.05 202.863 394.006 203.486 393.801Z" fill="#2F2E41"/>
<path d="M144.692 379.079L165.662 384.61C161.8 376.609 159.422 369.531 160.914 364.856L151.023 363.671L144.692 379.079Z" fill="#FFB8B8"/>
<path d="M145.982 386.1L167.679 387.505C168.255 387.542 168.832 387.455 169.371 387.25C169.91 387.045 170.398 386.726 170.803 386.315C171.207 385.905 171.519 385.412 171.715 384.87C171.912 384.329 171.99 383.752 171.943 383.177C171.879 382.389 171.583 381.637 171.092 381.017C170.601 380.396 169.937 379.934 169.184 379.689L164.719 378.236L163.402 376.594C163.263 376.421 163.074 376.296 162.86 376.235C162.647 376.175 162.419 376.182 162.21 376.256C162.001 376.331 161.82 376.468 161.693 376.65C161.566 376.831 161.499 377.048 161.5 377.27L161.536 381.71L146.042 374.163L142.721 380.134C142.392 380.727 142.217 381.394 142.215 382.072C142.212 382.75 142.382 383.418 142.707 384.013C143.033 384.609 143.503 385.112 144.076 385.477C144.649 385.842 145.304 386.056 145.982 386.1Z" fill="#2F2E41"/>
<path d="M214.652 135.73C222.737 135.73 229.292 129.186 229.292 121.113C229.292 113.04 222.737 106.495 214.652 106.495C206.567 106.495 200.013 113.04 200.013 121.113C200.013 129.186 206.567 135.73 214.652 135.73Z" fill="#FFB8B8"/>
<path d="M191.423 140.144L208.345 152.92C211.08 142.493 214.363 135.045 218.664 133.138L201.742 123.247L191.423 140.144Z" fill="#FFB8B8"/>
<path d="M147.674 363.513L162.12 369.694L195.551 290.98L198.234 378.555L212.68 377.731L228.776 240.495L227.538 232.665L172.85 244.822L172.025 288.919L147.674 363.513Z" fill="#2F2E41"/>
<path d="M231.252 116.859C231.252 116.859 221.76 108.205 218.87 111.914C215.981 115.623 215.156 116.447 213.505 116.447C211.854 116.447 207.727 120.98 207.727 120.98C207.727 120.98 205.663 116.859 203.187 120.156C200.71 123.453 200.297 128.398 200.297 128.398C200.297 128.398 191.217 107.38 207.314 103.259C223.411 99.138 234.967 111.914 231.252 116.859Z" fill="#2F2E41"/>
<path d="M169.136 251.416C176.978 247.987 177.209 250.679 188.534 255.125C202.798 256.893 211.866 257.12 216.394 251.21C218.247 239.477 219.766 228.226 220.703 217.528C220.897 215.323 221.065 213.14 221.206 210.979C222.857 185.811 220.835 163.932 211.647 146.326L195.138 133.962L189.752 137.865C176.887 147.187 178.889 161.508 177.18 177.288L169.136 251.416Z" fill="#2A2C34"/>
<path d="M219.077 247.707L227.744 240.289L226.919 232.871H219.077V247.707Z" fill="#FFB8B8"/>
<path opacity="0.2" d="M196.201 173.32C196.201 173.32 171.817 205.053 189.235 219.477C206.652 233.901 216.394 242.968 216.394 242.968C216.394 242.968 215.36 180.738 196.201 173.32Z" fill="black"/>
<path opacity="0.2" d="M205.663 205.053L220.703 217.528C220.897 215.323 221.064 213.14 221.206 210.979L211.028 165.489L205.663 205.053Z" fill="black"/>
<path d="M216.6 242.762L228.569 233.283L212.885 193.719L212.529 152.48C212.513 150.555 211.904 148.682 210.785 147.113C209.667 145.545 208.093 144.358 206.276 143.714C204.867 143.213 203.359 143.056 201.877 143.254C200.396 143.452 198.982 144 197.755 144.853C196.528 145.705 195.521 146.838 194.82 148.156C194.119 149.475 193.742 150.941 193.722 152.434L193.074 200.313L216.6 242.762Z" fill="#2A2C34"/>
</svg>
