<svg width="576" height="394" viewBox="0 0 576 394" fill="none" xmlns="http://www.w3.org/2000/svg">
<g clip-path="url(#clip0)">
<path d="M61.6678 329.086C61.6678 351.309 47.863 359.068 30.8339 359.068C13.8048 359.068 0 351.309 0 329.086C0 306.863 30.8339 278.592 30.8339 278.592C30.8339 278.592 61.6678 306.863 61.6678 329.086Z" fill="#F2F2F2"/>
<path d="M29.7108 355.669L30.0264 337.07L43.1687 314.061L30.0759 334.152L30.2179 325.79L39.2754 309.143L30.2555 323.577V323.577L30.5109 308.536L40.2098 295.284L30.5509 306.171L30.7102 278.592L29.7078 315.102L29.7901 313.596L19.9295 299.151L29.632 316.487L28.7131 333.285L28.6863 332.839L17.3179 317.638L28.6517 334.414L28.5365 336.515L28.5162 336.546L28.5258 336.718L26.1946 379.336H29.3092L29.6827 357.323L40.9885 340.588L29.7108 355.669Z" fill="#3F3D56"/>
<path d="M304.778 43.5483C385.731 105.28 399.064 218.126 334.559 295.598C270.053 373.069 73.5926 423.13 71.1823 324.098C68.7565 224.432 15.1662 131.033 41.4013 72.0485C81.9411 -19.0968 223.824 -18.1832 304.778 43.5483Z" fill="#F2F2F2"/>
<path d="M89.712 394C137.165 394 175.633 387.864 175.633 380.296C175.633 372.727 137.165 366.591 89.712 366.591C42.2591 366.591 3.79102 372.727 3.79102 380.296C3.79102 387.864 42.2591 394 89.712 394Z" fill="#3F3D56"/>
<path d="M529.107 382.45C552.476 382.45 571.42 379.428 571.42 375.701C571.42 371.974 552.476 368.952 529.107 368.952C505.739 368.952 486.795 371.974 486.795 375.701C486.795 379.428 505.739 382.45 529.107 382.45Z" fill="#3F3D56"/>
<path d="M576 91.3635H85.5352V344.893H576V91.3635Z" fill="#3F3D56"/>
<path d="M576 70.8071H85.5352V94.2186H576V70.8071Z" fill="#3F3D56"/>
<path d="M97.4687 85.0823C99.7754 85.0823 101.645 83.2927 101.645 81.0852C101.645 78.8777 99.7754 77.0881 97.4687 77.0881C95.162 77.0881 93.292 78.8777 93.292 81.0852C93.292 83.2927 95.162 85.0823 97.4687 85.0823Z" fill="#2F2E41"/>
<path d="M109.402 85.0823C111.709 85.0823 113.579 83.2927 113.579 81.0852C113.579 78.8777 111.709 77.0881 109.402 77.0881C107.096 77.0881 105.226 78.8777 105.226 81.0852C105.226 83.2927 107.096 85.0823 109.402 85.0823Z" fill="#2F2E41"/>
<path d="M121.335 85.0823C123.642 85.0823 125.512 83.2927 125.512 81.0852C125.512 78.8777 123.642 77.0881 121.335 77.0881C119.029 77.0881 117.159 78.8777 117.159 81.0852C117.159 83.2927 119.029 85.0823 121.335 85.0823Z" fill="#2F2E41"/>
<path opacity="0.1" d="M576 91.3635H85.5352V94.2186H576V91.3635Z" fill="black"/>
<path opacity="0.3" d="M210.538 131.62H113.877V230.405H210.538V131.62Z" fill="#2F2E41"/>
<path d="M217.101 124.768H120.44V223.553H217.101V124.768Z" fill="#2F2E41"/>
<path opacity="0.3" d="M542.612 130.036H468.301V205.98H542.612V130.036Z" fill="#2F2E41"/>
<path d="M547.658 124.768H473.347V200.712H547.658V124.768Z" fill="#2F2E41"/>
<path opacity="0.3" d="M542.612 235.544H468.301V311.489H542.612V235.544Z" fill="#2F2E41"/>
<path d="M547.658 230.276H473.347V306.221H547.658V230.276Z" fill="#2F2E41"/>
<path d="M435.484 124.768H251.112V131.62H435.484V124.768Z" fill="#2F2E41"/>
<path d="M435.484 144.753H251.112V151.605H435.484V144.753Z" fill="#2F2E41"/>
<path d="M435.484 164.739H251.112V171.591H435.484V164.739Z" fill="#2F2E41"/>
<path d="M435.484 184.724H251.112V191.576H435.484V184.724Z" fill="#2F2E41"/>
<path d="M435.484 204.709H251.112V211.562H435.484V204.709Z" fill="#2F2E41"/>
<path d="M435.484 224.695H251.112V231.547H435.484V224.695Z" fill="#2F2E41"/>
<path d="M435.484 244.68H251.112V251.533H435.484V244.68Z" fill="#2F2E41"/>
<path d="M435.484 264.666H251.112V271.518H435.484V264.666Z" fill="#2F2E41"/>
<path d="M435.484 284.651H251.112V291.503H435.484V284.651Z" fill="#2F2E41"/>
<path d="M435.484 304.637H251.112V311.489H435.484V304.637Z" fill="#2F2E41"/>
<path d="M75.3827 178.659C82.4677 178.659 88.2112 173.163 88.2112 166.383C88.2112 159.602 82.4677 154.106 75.3827 154.106C68.2977 154.106 62.5542 159.602 62.5542 166.383C62.5542 173.163 68.2977 178.659 75.3827 178.659Z" fill="#A0616A"/>
<path d="M67.082 172.16C67.082 172.16 67.082 185.159 64.8182 186.603C62.5543 188.048 82.929 189.492 82.929 189.492V172.882L67.082 172.16Z" fill="#A0616A"/>
<path d="M42.1802 244.376C42.1802 244.376 56.5179 260.264 59.5364 260.264C62.5549 260.264 65.5734 249.432 65.5734 249.432L51.2356 239.321L42.1802 244.376Z" fill="#A0616A"/>
<path d="M113.869 172.882L116.133 157.716C116.133 157.716 117.642 136.774 122.169 141.829C126.697 146.884 123.679 158.439 123.679 158.439C123.679 158.439 125.943 175.048 123.679 177.215C121.415 179.381 113.869 172.882 113.869 172.882Z" fill="#A0616A"/>
<path d="M101.041 254.487L60.2914 250.876C60.2914 250.876 55.009 274.707 56.5183 284.095C58.0275 293.483 58.7821 320.204 58.7821 320.204C58.7821 320.204 60.2914 368.589 62.5552 371.477C64.8191 374.366 72.3653 373.644 74.6291 375.088C76.893 376.532 80.6661 372.199 80.6661 371.477C80.6661 370.755 76.1384 370.755 78.4022 366.422C80.6661 362.089 72.3653 349.812 74.6291 344.035C76.893 338.258 80.6661 330.314 78.4022 327.425C76.1384 324.537 79.9115 287.706 79.9115 287.706C79.9115 287.706 98.7769 313.704 98.7769 325.259C98.7769 336.813 97.2677 363.534 96.5131 366.422C95.7584 369.311 95.0038 370.033 96.5131 372.199C98.0223 374.366 99.5316 376.533 98.7769 377.255C98.0223 377.977 112.36 377.255 112.36 372.922C112.36 368.589 111.605 368.589 113.115 364.978C114.624 361.367 115.379 318.037 115.379 318.037L101.041 254.487Z" fill="#2F2E41"/>
<path d="M64.8177 181.548L62.5538 185.881C62.5538 185.881 38.406 193.103 37.6514 208.268L58.0261 240.766C58.0261 240.766 59.5353 242.932 58.7807 244.376C58.0261 245.821 57.2715 245.099 58.0261 247.265C58.7807 249.432 58.7807 248.709 58.7807 250.154C58.7807 251.598 56.5168 250.876 58.7807 251.598C61.0446 252.32 58.0261 251.598 66.3269 253.765C74.6277 255.931 99.5301 255.209 99.5301 255.209L95.0024 213.323L99.5301 204.657L93.4932 187.325C93.4932 187.325 89.7201 186.603 87.4562 188.048C85.1924 189.492 82.1739 186.603 82.1739 186.603C82.1739 186.603 78.4008 181.548 64.8177 181.548Z" fill="#575A89"/>
<path d="M89.7217 188.048L93.4948 187.325C93.4948 187.325 108.587 182.992 109.342 179.382C110.096 175.771 113.869 171.438 113.869 171.438C113.869 171.438 125.943 168.549 125.189 177.937C124.434 187.325 121.416 190.214 119.906 191.658C118.397 193.103 101.796 204.657 98.7771 204.657C95.7586 204.657 89.7217 188.048 89.7217 188.048Z" fill="#575A89"/>
<path d="M39.1621 205.379L37.6528 208.268L36.8982 234.266C36.8982 234.266 32.3705 237.155 34.6344 238.599C36.8982 240.043 42.1806 246.543 43.6898 246.543C45.199 246.543 53.4998 242.932 53.4998 241.488C53.4998 240.043 51.9906 227.044 51.9906 227.044L39.1621 205.379Z" fill="#575A89"/>
<path d="M67.0823 371.477C67.0823 371.477 67.0823 378.699 66.3276 380.143C65.573 381.588 64.0638 388.809 68.5915 388.809C71.1854 388.845 73.7576 388.353 76.1377 387.365C76.1377 387.365 76.1377 383.032 78.4015 382.31C80.6654 381.588 85.9477 375.81 83.6839 374.366C81.42 372.922 76.8923 371.477 76.8923 371.477L67.0823 371.477Z" fill="#2F2E41"/>
<path d="M99.5309 375.088C99.5309 375.088 95.0032 385.199 99.5309 385.921C104.059 386.643 110.096 385.921 110.85 384.476C111.605 383.032 113.114 381.588 114.623 382.31C116.132 383.032 128.961 374.366 124.433 372.922C121.74 372.058 118.826 372.058 116.133 372.922L111.605 370.755L99.5309 375.088Z" fill="#2F2E41"/>
<path d="M77.0047 179.914C77.219 179.901 77.4281 179.846 77.6188 179.752C77.9261 179.515 78.1301 179.177 78.1911 178.804L79.7323 173.579C80.3171 171.596 81.2563 169.28 83.364 168.861C83.8058 168.833 84.2377 168.723 84.6358 168.537C84.8668 168.329 85.0481 168.076 85.1673 167.794C85.2865 167.513 85.3408 167.21 85.3264 166.907L85.9867 160.153C86.1653 158.327 86.3346 156.429 85.6691 154.709C84.6873 152.172 81.9955 150.502 79.2137 150.022C76.4318 149.542 73.566 150.079 70.8582 150.855C66.7505 152.033 62.4968 154.06 60.7123 157.791C59.6792 159.951 59.6156 162.415 59.7537 164.787C59.8959 167.229 60.251 169.719 61.4239 171.892C62.0761 173.016 62.8331 174.081 63.6859 175.074C64.9597 176.652 66.5222 179.737 68.6304 180.325C71.0071 180.989 74.5965 180.213 77.0047 179.914Z" fill="#2F2E41"/>
<path d="M495.301 333.227C495.301 354.942 509.536 372.514 527.128 372.514L495.301 333.227Z" fill="#2F2E41"/>
<path d="M527.128 372.514C527.128 350.555 543.014 332.786 562.645 332.786L527.128 372.514Z" fill="#2F2E41"/>
<path d="M506.833 335.196C506.833 355.823 515.911 372.514 527.129 372.514L506.833 335.196Z" fill="#2F2E41"/>
<path d="M527.128 372.514C527.128 344.455 545.49 321.75 568.181 321.75L527.128 372.514Z" fill="#2F2E41"/>
<path d="M520.434 372.791C520.434 372.791 524.947 372.658 526.307 371.731C527.668 370.804 533.25 369.697 533.588 371.183C533.925 372.67 540.371 378.577 535.275 378.617C530.179 378.656 523.435 377.857 522.077 377.066C520.719 376.274 520.434 372.791 520.434 372.791Z" fill="#A8A8A8"/>
<path opacity="0.2" d="M535.366 378.099C530.27 378.139 523.526 377.34 522.168 376.548C521.134 375.946 520.722 373.783 520.584 372.785C520.489 372.789 520.434 372.791 520.434 372.791C520.434 372.791 520.719 376.274 522.077 377.066C523.435 377.857 530.179 378.656 535.275 378.617C536.746 378.605 537.254 378.105 537.226 377.363C537.022 377.811 536.461 378.091 535.366 378.099Z" fill="black"/>
</g>
<defs>
<clipPath id="clip0">
<rect width="576" height="394" fill="white"/>
</clipPath>
</defs>
</svg>
